<svg xmlns="http://www.w3.org/2000/svg" viewBox="0 0 701.87 348.67">
    <path d="M420.7,167.51a27.38,27.38,0,0,0-22.46-17.35c-12.65-1.32-26.86,3.74-36.06,12.51-6.4,6.09-9.7,14.09-13.69,21.81q-7.08,13.77-14.23,27.5c-3.64-1.42-8.46-3.33-10.8.15-3,4.49,1.42,7.26,6.06,9-17.15,32.86-35.2,65.79-48.79,100.33-1.1,2.8-5.18,12.49-5.18,16.44,0,14.33,14.07,11.91,17,6.92,3.35-5.79-1.75-11-.44-18.8a23.33,23.33,0,0,1,1.54-4.64c.15-.28,1-1.93,1.11-2.21,3.2-6.6,4.85-10.23,8.06-16.83l34-70.16c1.28-2.64,2.57-5.29,3.85-7.94a101.32,101.32,0,0,0,16.19,3,66.28,66.28,0,0,0,50.21-16.1C419.49,200.15,427.29,183.77,420.7,167.51Zm-16.06,20.26c-1.53,5.49-7.92,13.1-15.23,18s-20.09,9.43-32.57,10a51.36,51.36,0,0,1-11.69-.82c2.48-5.09,5-10.2,7.42-15.29,2.92-6,5.57-13,9.13-19.13,2.68-4.61,5.89-8.76,10.13-11.67A24.63,24.63,0,0,1,392,165.09a20.46,20.46,0,0,1,11.52,8.31C406.61,178.11,406.1,182.5,404.64,187.77Z"/><path class="cls-1" d="M324.76,164.8c-3.93-12-15.75-22.61-23.05-27.86s-10.51.92-11,4.11.46,5.49-1.36,11.19c-4.39,13.69-40.43,48.62-47.28,55-4.1,3.83-14.33,11.25-26,19a72.32,72.32,0,0,0,2.63-18.1c0-5.35-1.31-10.89-4.7-15-13.68-16.72-26.09,8.18-35.87,15.41-6.22,4.61-18.52,10.17-23.52,1.52-6.78-11.75,4.18-27.13,8.91-37.68,4.1-9.19,6.7-20,2.12-29.55-3.8-7.88-13.3-10-21.24-7.64-7,2.09-11.5,11.94-18.95,18.66-6.67,6-10.27,5.72-13.73.33,19.29-36.86,49.45-93.29,63-127.64,1.11-2.79,5.19-12.48,5.19-16.44,0-14.32-13.72-10.65-16.62-5.65-3.34,5.79,4.08,10.86,1,17.25-1.11,2.34-1.77,3.63-1.77,3.63L104.9,142.51c-3.75-3.74-9.21-6-14.13-7.22-16-4-36,2.36-50.13,9.84-15.5,8.22-28.9,20.94-36.44,36.92-7.36,15.63-4.13,27.68,2.64,36a29.71,29.71,0,0,0,2.59,2.79c12.87,12,35.64,7.86,50,.87,15.65-7.62,27.91-21.06,36.33-36.09,3-5.31,6.39-12.44,8.13-16.14,2.73,5.14,6.1,10.67,13,8,3.34-1.28,5.84-4.07,8.06-6.89,3-3.79,5.77-7.8,9.11-11.31,4.14-4.36,13-11.28,19.19-6.72,7.55,5.62,2.83,17.88-.67,24.47-3.38,6.35-7.83,12.11-10.92,18.61s-4.73,14.18-2.1,20.88c4.11,10.45,14.76,12.56,24.76,10.16a58.51,58.51,0,0,0,14.6-5.84c5.1-2.83,8.19-8.29,13.51-10.81a8.37,8.37,0,0,1,5.16-.86,7.8,7.8,0,0,1,5.48,5.33,18.11,18.11,0,0,1,.45,7.93,120.39,120.39,0,0,1-2.27,13.28c-3.2,2-6.35,3.85-9.4,5.61-19.41,11.18-46.12,22.69-59.44,30.53-7.52,4.42-22,15.8-29.7,28.76-9.22,15.45-5.24,30.05-2.14,35.35,5,8.52,15.46,13,27.71,10.32,23.14-5,37.31-24.92,50.92-43.38,10.19-13.83,18-29.52,24.9-45.21,3-6.74,6.15-14,8.78-21.37,11.5-7.17,22.46-14.7,30.34-21.49,21.46-18.49,27.63-26.71,34-33.79s16.67-19.86,19.86-25.8c0,0,2.06,1.6,3.66,3a59.43,59.43,0,0,1,9.82,12.56c3.19,6,3,14.39.91,21.93-1.94,7.13-6.26,12.25-11,16.37s-10.64,6.23-19.09,5.77-13-4.33-16.21-7.53-6.62-1.14-8,.23-2.05,5.48.91,9.36,5,5,10,7.54,15.07,3.82,24.9,1.37c13.7-3.43,21.37-9.33,28.22-19.84S330.54,182.49,324.76,164.8ZM95.29,162.06c-10.12,15-18.75,31.06-34.67,40.81-9.8,6-22.69,11.19-33.71,5.12-5.9-3.24-8.13-8.32-7.08-16.21,1.18-8.84,8.22-20.29,18-29.18C53,148.73,69.18,146.06,81.74,147c8.71.64,13.13,4.79,16,10.17Zm74.23,136.62c-9.73,11.69-21.92,24.7-36.64,29.76-7.31,2.51-15.17.09-18.13-9.31-2.77-8.79.47-19.37,10.13-31.1,5.35-6.49,20.65-16.14,36.64-23.45,7.74-3.54,22.14-11,37.36-19.85A156,156,0,0,1,169.52,298.68Z"/><path class="cls-1" d="M455.94,195.7c1.83-2.44,4-5.82,6.07-8,4.92-5.29,10.42-11.63,16.87-15a.94.94,0,0,0,.18-1.5,67.4,67.4,0,0,1-6-6.21c-1.93-2.51-5.87-8-5.94-7.95-1.84,1.43-3.71,6-5.25,7.95a110.84,110.84,0,0,1-8.17,9.43c-5.84,6-15.19,16.58-24.14,17.21-1.71.12-5.47-.24-1.25-3.49,9.9-7.63,18-17.49,24.44-28.17,2.42-4,7.87-11.25,7.52-16.07-.17-2.26-1.76-3-.85-5.43a4.76,4.76,0,0,1,4.63-3.21c6.74.71,11,6.94,15.05,11.53,6,6.73,12.73,12.37,19.3,18.45.92.84,3.43,4.09.12,6.26S484.16,181.67,477,190.47s-12,18.52-6.16,24.47c3.76,3.85,8.1,4.46,12.1,4.22a70.41,70.41,0,0,0,11.53-1.81c2.17-.6,5.14-.24,5.48.36s3.19,3-7.08,6.75c-8.72,3.17-19.54,4-28.79,4.12-6.49.07-13.84-2.52-16.08-8.61-1.3-3.55-.57-7.53.69-11.09A49.66,49.66,0,0,1,455.94,195.7Z"/><path class="cls-1" d="M698.2,153.28c-1.55-2-3.51-4.23-6-4.1-1.78.09-3.27,1.35-4.62,2.52a114.8,114.8,0,0,1-53.95,25.59c-10,1.84-19.87,2-30,1.43l-3.09-.16c.06-.76.08-1.52.08-2.27,0-5.7-1.71-11.12-6.69-14.15a5.66,5.66,0,0,0-2.88-1,2.69,2.69,0,0,0-2.51,1.49c-.41,1,.06,2.18.37,3.26,1.68,5.53-.64,8.24-3.71,11.32a50.64,50.64,0,0,1-8-1.92,9.44,9.44,0,0,1-.89-.32c-8-3.47-4.88-10,1.92-11.87,2.39-.66,5.11-1.88,5.58-4.32.49-2.61-2-4.83-4.35-5.95-4.62-2.14-9.93-2.38-15-1.58a84.67,84.67,0,0,0-42.61,20.84c-5.22,4.83-9.85,10.44-12.7,17s-3.85,14-1.85,20.81c4.95,16.93,27.09,20.95,42.31,19a61,61,0,0,0,40.84-24.52,57.06,57.06,0,0,0,7.46-14c.23-.62.45-1.29.66-2,1.49.14,2.93.25,4.33.35,20.9,1.41,42.19-.09,62.33-6.1a129.47,129.47,0,0,0,30.15-13.23c2.8-1.7,5.78-3.88,6.34-7.12S700.21,155.9,698.2,153.28ZM576,189.08c-2.66,6-4.2,12-8.7,17a41.08,41.08,0,0,1-15.52,10.72c-7.08,2.72-17.87,4.54-25.08,1.24-6.48-3-9.76-11.52-9.18-18.22.7-8.29,6.06-15.62,12.71-20.63,3.18-2.39,28.27-17.09,29.33-9.91.61,4.09,2.59,5.74,5.78,8.36a41.05,41.05,0,0,0,13.1,6.84A33.39,33.39,0,0,0,576,189.08Z"/>
</svg>